<svg xmlns="http://www.w3.org/2000/svg" viewBox="0 0 66 71">
<path d="M63.1244 0.0736124L2.94824 0C1.94822 0.765807 0.986915 1.56961 0.0667076 2.40962L0 57.7424C0.00476483 57.7472 0.00952965 57.7513 0.0148901 57.7555C1.10008 58.7486 2.24304 59.6931 3.43961 60.5848C11.3921 66.5124 21.6937 70.0956 32.9518 70.1093C44.2099 70.123 54.5209 66.5652 62.4877 60.6572C63.6861 59.7691 64.8314 58.827 65.919 57.8362C65.9238 57.8321 65.9285 57.8279 65.9333 57.8237L66 2.49095C65.0816 1.64856 64.1221 0.842387 63.1244 0.0736124ZM32.9261 66.9796C22.5847 66.9671 13.1587 63.4812 6.03644 57.7632C5.52779 57.3548 5.03106 56.9345 4.54624 56.5035C4.32348 56.3064 4.1043 56.1063 3.88691 55.9045C3.88214 55.9009 3.87797 55.8974 3.8738 55.8932L3.92741 11.1493L3.93634 3.58742V3.4491L3.93694 3.28881H4.2669L61.636 3.35946H62.0678V3.75305L62.0637 6.89938L62.0047 55.8855V55.9644C62.0005 55.9686 61.9964 55.9722 61.9922 55.9763C61.3001 56.6174 60.5812 57.2354 59.8379 57.8297C52.702 63.5293 43.2676 66.9921 32.9261 66.9796Z" />
<path d="M3.88698 55.9044C3.88222 55.9008 3.87805 55.8973 3.87388 55.8931L3.92748 11.1492L3.93701 3.58734H3.93642C3.76965 3.73931 3.60467 3.89307 3.44088 4.04741L3.36523 55.4259C3.3694 55.4301 3.37357 55.4336 3.37834 55.4378C3.54213 55.5933 3.70711 55.7477 3.87388 55.8985C4.09544 56.1033 4.31939 56.3039 4.54632 56.5022C4.32356 56.3051 4.10438 56.1051 3.88698 55.9032V55.9044ZM61.6361 3.35878C61.0744 2.85418 60.4967 2.36501 59.9035 1.89188L6.02163 1.81055C5.42066 2.28725 4.83578 2.77997 4.26698 3.28933C4.20742 3.34157 4.14786 3.39559 4.0883 3.44902L61.8136 3.51966C61.7546 3.46623 61.6956 3.41221 61.6361 3.35938V3.35878ZM62.0679 3.75237H62.0673L62.0637 6.89871L62.0048 55.8848C62.134 55.7661 62.2621 55.6468 62.3889 55.5268C62.3937 55.5233 62.3979 55.5191 62.402 55.515L62.4777 4.13646C62.3425 4.00764 62.2055 3.88001 62.0679 3.75237ZM59.0518 38.2908V42.599H58.9011L58.9076 38.2908H59.0518ZM59.1113 47.1499V51.5904H58.8874L58.8939 47.1499H59.1113Z" />
<path d="M66 2.49095L65.9333 57.8237C65.9285 57.8279 65.9238 57.8321 65.919 57.8362C64.8314 58.827 63.6861 59.7691 62.4877 60.6572L59.8343 60.6543C60.5782 60.0309 61.2965 59.3821 61.9886 58.7101C61.9928 58.7059 61.9969 58.7023 62.0011 58.6976V58.548L62.0047 55.9638V55.8849L62.0637 6.89879L62.0678 3.75245V3.51974H61.8165L61.8135 3.51915L4.08822 3.4485H3.93694V3.58682L3.92741 11.1487L3.8738 55.8926V55.8991L3.87023 58.6258C3.8744 58.6305 3.87857 58.6341 3.88333 58.6388C4.57423 59.3126 5.29134 59.9632 6.03346 60.5878L3.43961 60.5848C2.24304 59.6931 1.10008 58.7481 0.0148901 57.7555C0.00952965 57.7513 0.00476483 57.7472 0 57.7424L0.0667076 2.40962C0.986915 1.56961 1.94822 0.765807 2.94824 0L63.1244 0.0736124C64.1221 0.842387 65.0816 1.64856 66 2.49095Z" />
<path d="M3.87085 58.4756C3.87501 58.4803 3.87917 58.4845 3.88392 58.4892H3.87085V58.4756Z" />
<path d="M61.9893 58.5615C61.9934 58.5568 61.9976 58.5526 62.0017 58.5479V58.5615H61.9893Z" />
<path d="M49.5305 34.1214L49.5017 34.1436L49.5239 34.1722L49.5527 34.1501L49.5305 34.1214Z" />
<path d="M49.5305 34.1214L49.5017 34.1436L49.5239 34.1722L49.5527 34.1501L49.5305 34.1214Z" />
<path d="M49.5305 34.1214L49.5017 34.1436L49.5239 34.1722L49.5527 34.1501L49.5305 34.1214Z" />
<path d="M49.5305 34.1214L49.5017 34.1436L49.5239 34.1722L49.5527 34.1501L49.5305 34.1214Z" />
<path d="M11.467 33.9512V57.7482C9.87737 56.6885 8.38776 55.5143 7.01311 54.2403C6.99167 54.2213 6.96963 54.2011 6.94819 54.1809C6.94402 54.1774 6.93985 54.1738 6.93628 54.1702V33.9512H11.467Z" />
<path d="M20.6866 33.3574V62.1666C19.0517 61.6311 17.4721 60.9912 15.9575 60.255V33.3574H20.6866Z" />
<path d="M9.05625 6.5625C8.25873 7.18761 7.4916 7.843 6.75781 8.52688V30.0116H11.2796V22.6504H25.5628V30.2491H30.2841V6.5625H9.05625ZM11.2796 17.545V11.6679H25.5628V17.545H11.2796Z" />
<path d="M30.2627 33.3574V63.516C28.6551 63.4061 27.0768 63.2031 25.5342 62.9134V33.3574H30.2627Z" />
<path d="M46.8203 33.6543C46.8203 34.9556 46.2414 36.134 45.3057 36.987C44.37 37.8395 43.0769 38.3673 41.6487 38.3673H33.8689V33.6543H46.8203Z" />
<path d="M49.5305 34.1214L49.5017 34.1436L49.5239 34.1722L49.5527 34.1501L49.5305 34.1214Z" />
<path d="M59.5924 16.0596H34.0315V20.7731H59.5924V16.0596Z" />
<path d="M59.0516 38.291V43.004H46.392C46.392 42.9672 46.3926 42.9298 46.3938 42.893C46.2014 43.8517 45.6904 44.709 44.9644 45.3703C44.0287 46.2233 42.7356 46.7511 41.3074 46.7511H33.5276V42.0381H46.479C46.479 42.0749 46.479 42.1123 46.4772 42.1491C46.6696 41.1904 47.1806 40.3332 47.9066 39.6712C48.8429 38.8188 50.136 38.291 51.5642 38.291H59.0516Z" />
<path d="M59.1114 47.1504V51.8634H46.3327C46.3327 51.8266 46.3333 51.7892 46.3345 51.7524C46.1421 52.7111 45.6305 53.5677 44.905 54.2296C43.9693 55.0827 42.6763 55.6105 41.248 55.6105H33.4683V50.8969H46.4197C46.4197 50.9343 46.4197 50.9717 46.4179 51.0085C46.6103 50.0498 47.1213 49.1925 47.8473 48.5312C48.7836 47.6781 50.0767 47.1504 51.5049 47.1504H59.1114Z" />
<path d="M57.0589 55.6387C57.0208 55.6701 56.9827 55.7016 56.944 55.7331C54.739 57.5318 52.2893 59.0866 49.6454 60.3516H46.3273C46.3273 60.3148 46.3279 60.2774 46.3291 60.2406C46.1981 60.8948 45.9181 61.5015 45.5227 62.0311C41.7602 63.3122 37.7 64.0364 33.4629 64.0946V59.3852H46.4143C46.4143 59.4226 46.4137 59.46 46.4125 59.4968C46.6049 58.5381 47.1165 57.6808 47.8425 57.0195C48.7782 56.1664 50.0713 55.6387 51.4995 55.6387H57.0589Z" />
<path d="M29.2121 6.5625V11.6679H6.75781V8.52688C7.4916 7.843 8.25873 7.18761 9.05625 6.5625H29.2121Z" />
<path d="M28.8547 17.5449H7.68994V22.6503H28.8547V17.5449Z" />
<path d="M11.2796 6.5625V30.0116H6.7578V24.2509H6.69824V23.9279L6.7578 23.9879V8.52688C7.49159 7.843 8.25872 7.18761 9.05624 6.5625H11.2796Z" />
<path d="M38.3842 6.5625H33.6628V30.2491H38.3842V6.5625Z" />
<path d="M30.0972 33.3281H6.90674V38.034H30.0972V33.3281Z" />
<path d="M46.8203 33.6543C46.8203 34.9556 46.2414 36.134 45.3057 36.987C44.37 37.8395 43.0769 38.3673 41.6487 38.3673H33.8689V33.6543H46.8203Z" />
<path d="M30.2627 33.3574V64.0128C28.6545 63.9072 27.0762 63.7053 25.5342 63.4127V33.3574H30.2627Z" />
<path d="M59.3542 25.5576H33.6492V30.2712H59.3542V25.5576Z" />
<path d="M59.5924 8.52688V11.2749H34.0315V6.5625H57.294C58.0915 7.18761 58.8586 7.843 59.5924 8.52688Z" />
<path d="M7.01868 24.2507H6.69824V23.9277L6.7578 23.9877L7.01868 24.2507Z" />
</svg>